/vscmnt/brussel_pixiu_data/_data_brussel/112/vsc11236/PredSimResults/SUBJ11opt3D/trackIG/worker_04.mot
version=1
nRows=9
nColumns=50
inDegrees=yes
endheader
                time	         pelvis_tilt	         pelvis_list	     pelvis_rotation	           pelvis_tx	           pelvis_ty	           pelvis_tz	       hip_flexion_r	     hip_adduction_r	      hip_rotation_r	        knee_angle_r	       ankle_angle_r	         mtp_angle_r	       hip_flexion_l	     hip_adduction_l	      hip_rotation_l	        knee_angle_l	       ankle_angle_l	         mtp_angle_l	    lumbar_extension	      lumbar_bending	     lumbar_rotation	 ercspn_r/activation	 intobl_r/activation	 extobl_r/activation	    abd_r/activation	    add_r/activation	hamstrings_r/activation	bifemsh_r/activation	glut_max_r/activation	iliopsoas_r/activation	rect_fem_r/activation	  vasti_r/activation	gastroc_r/activation	 soleus_r/activation	tib_ant_r/activation	 ercspn_l/activation	 intobl_l/activation	 extobl_l/activation	    abd_l/activation	    add_l/activation	hamstrings_l/activation	bifemsh_l/activation	glut_max_l/activation	iliopsoas_l/activation	rect_fem_l/activation	  vasti_l/activation	gastroc_l/activation	 soleus_l/activation	tib_ant_l/activation	
          0.00000000	         -2.55212008	         -0.55414223	          5.75654864	          0.00000000	          0.94828613	         -0.00824265	         29.92962081	         -2.42511059	         -3.20385922	        -10.25638739	          0.96144374	          0.20646466	        -11.70376895	         -2.53887156	         -2.84951451	        -12.60816993	         13.40234579	         26.13264831	        -14.74986562	         -3.23667939	         -2.89291124	          0.01406528	          0.25992805	          0.07508778	          0.00999999	          0.14636164	          0.02562838	          0.05758787	          0.02173283	          0.09771470	          0.04863230	          0.01816592	          0.01000000	          0.00999999	          0.36255615	          0.01000001	          0.01000000	          0.01000000	          0.04859881	          0.01000003	          0.01434697	          0.15729825	          0.01899254	          0.03877371	          0.01000009	          0.01000000	          0.13590063	          0.29641103	          0.01277373	
          0.01520396	         -2.72541011	         -0.57579379	          5.69144134	          0.01735508	          0.94606408	         -0.00636576	         29.47137298	         -2.18512672	         -3.43517307	        -10.67789868	          0.43573650	          0.22396802	        -12.23510414	         -2.74994464	         -3.35359822	        -13.24580648	         12.84759810	         27.74221218	        -14.32057661	         -2.76508218	         -3.15977011	          0.01122171	          0.20737850	          0.05990730	          0.00999999	          0.14682108	          0.03719501	          0.04594540	          0.05884893	          0.07795975	          0.03880033	          0.01449333	          0.01253501	          0.01354968	          0.37726678	          0.01000009	          0.01000001	          0.01000004	          0.03877360	          0.01253399	          0.01482048	          0.12549731	          0.01857090	          0.03093485	          0.01000001	          0.01000002	          0.11054156	          0.28249201	          0.01019127	
          0.03040793	         -2.87597623	         -0.61893402	          5.60925417	          0.03522478	          0.94412229	         -0.00441688	         28.96036245	         -1.95979773	         -3.60946971	        -11.32810186	         -0.12914640	          0.20799441	        -12.68545852	         -2.99809438	         -3.86139746	        -14.10054008	         12.14196101	         29.42285839	        -13.84623629	         -2.25424527	         -3.42850908	          0.01570387	          0.16545285	          0.04779586	          0.05160104	          0.16340349	          0.04194854	          0.03665666	          0.07961653	          0.06219865	          0.03095608	          0.01981509	          0.01000081	          0.01081035	          0.44271200	          0.01000000	          0.00999999	          0.01000002	          0.03093475	          0.01000001	          0.01182423	          0.10012557	          0.01481643	          0.02468076	          0.01000014	          0.01000000	          0.08819340	          0.26261979	          0.00999999	
          0.04561189	         -3.00550001	         -0.65737551	          5.49760237	          0.05327459	          0.94273909	         -0.00237285	         28.50291508	         -1.75870590	         -3.87175775	        -12.05883421	         -0.92527551	          0.18089792	        -12.93642602	         -3.25910987	         -4.37485167	        -15.32887256	         11.22155618	         31.20557847	        -13.36850590	         -1.74141971	         -3.68628794	          0.02143017	          0.13200330	          0.03813299	          0.08174011	          0.18742906	          0.04599920	          0.02924583	          0.06352052	          0.04962397	          0.02469771	          0.06755511	          0.01000000	          0.00999999	          0.50232186	          0.01750763	          0.01000000	          0.01000000	          0.02468068	          0.01000002	          0.02082061	          0.07988321	          0.01304637	          0.01969107	          0.01000005	          0.01122032	          0.07036337	          0.23865415	          0.00999999	
          0.06081585	         -3.11403188	         -0.69271444	          5.36261768	          0.07130481	          0.94209011	         -0.00025555	         28.12802371	         -1.57196712	         -4.16727299	        -12.99039976	         -1.52942744	          0.13315737	        -12.90081152	         -3.54278361	         -4.89515908	        -17.04667979	         10.05166316	         33.07773882	        -12.90784115	         -1.22672099	         -3.93139338	          0.01969101	          0.10531623	          0.03042365	          0.10713650	          0.19362521	          0.05108710	          0.02333325	          0.06393522	          0.03959151	          0.01970458	          0.12213503	          0.01000000	          0.00999999	          0.52334924	          0.05006621	          0.01000000	          0.01000000	          0.01969100	          0.02585487	          0.03680054	          0.06373325	          0.01253375	          0.01571014	          0.01000001	          0.01709528	          0.05613803	          0.20580581	          0.00999999	
          0.07601982	         -3.20335406	         -0.72442183	          5.20770935	          0.08913337	          0.94234730	          0.00190789	         27.78271036	         -1.37869294	         -4.40084513	        -14.05918761	         -1.71423457	          0.08478705	        -12.50832420	         -3.85546081	         -5.42521286	        -19.33909518	          8.61406455	         34.92533272	        -12.47909766	         -0.71357247	         -4.16291522	          0.01571036	          0.08402448	          0.02427291	          0.11807345	          0.22608001	          0.05518705	          0.01861602	          0.08429123	          0.03158730	          0.01572092	          0.14839662	          0.01000000	          0.00999999	          0.50273455	          0.07025812	          0.01000000	          0.01000000	          0.01571008	          0.10413550	          0.05280699	          0.05084832	          0.01000000	          0.01253403	          0.01000001	          0.01366268	          0.04478862	          0.16419811	          0.00999999	
          0.09122378	         -3.27468050	         -0.74308557	          5.03083144	          0.10656142	          0.94356673	          0.00407965	         27.40872159	         -1.17644573	         -4.52687854	        -15.15071258	         -1.45566620	          0.06141202	        -11.66428707	         -4.19705209	         -5.97192270	        -22.34606997	          6.95216571	         36.50716032	        -12.10035262	         -0.21214372	         -4.37588641	          0.01253423	          0.06703728	          0.01936567	          0.12840312	          0.24886414	          0.06057733	          0.01485275	          0.07966209	          0.02520131	          0.01254263	          0.16092928	          0.01000000	          0.00999999	          0.44253245	          0.08109063	          0.01770260	          0.01000000	          0.01253397	          0.14225461	          0.06376448	          0.04056834	          0.00999999	          0.01000004	          0.01000000	          0.01090051	          0.03573372	          0.13100223	          0.00999999	
          0.10642774	         -3.32787596	         -0.73204655	          4.83223683	          0.12347741	          0.94563764	          0.00621818	         26.93648114	         -0.97729007	         -4.53234177	        -16.11499937	         -0.85460602	          0.12450880	        -10.33184476	         -4.56448780	         -6.57511987	        -26.11778493	          5.19420088	         37.35659991	        -11.78100099	          0.25963547	         -4.56527759	          0.01000023	          0.05348437	          0.01545052	          0.12814028	          0.24814947	          0.06354178	          0.01185060	          0.08047327	          0.02010637	          0.01000690	          0.17505694	          0.01000001	          0.00999999	          0.36586805	          0.08164382	          0.02924654	          0.01000001	          0.00999999	          0.17426682	          0.06302654	          0.03236667	          0.00999999	          0.01000002	          0.01000000	          0.00999999	          0.02850944	          0.10451755	          0.00999999	
          0.12163170	         -3.36280810	         -0.66519284	          4.60753097	          0.13984412	          0.94843291	          0.00828657	         26.28664294	         -0.81021705	         -4.45022211	        -16.77526163	         -0.11937635	          0.30900819	         -8.52766358	         -4.95379037	         -7.26479223	        -30.62221088	          3.44499628	         37.02010555	        -11.52472397	          0.67332386	         -4.72300434	          0.01000002	          0.04267145	          0.01232689	          0.11956534	          0.25083248	          0.06795006	          0.01969083	          0.07958443	          0.01604147	          0.01000001	          0.17846241	          0.01000000	          0.00999999	          0.30323418	          0.06513796	          0.02333381	          0.01815037	          0.00999999	          0.23295233	          0.05082435	          0.02582319	          0.00999999	          0.01000002	          0.00999999	          0.00999999	          0.02274570	          0.08338726	          0.00999999	
